<?xml version="1.0" encoding="UTF-8"?>
<svg width="42px" height="42px" viewBox="0 0 42 42" version="1.1" xmlns="http://www.w3.org/2000/svg" xmlns:xlink="http://www.w3.org/1999/xlink" xmlns:sketch="http://www.bohemiancoding.com/sketch/ns">
    <!-- Generator: Sketch 3.4.2 (15855) - http://www.bohemiancoding.com/sketch -->
    <title>Logo</title>
    <desc>Created with Sketch.</desc>
    <defs></defs>
    <g id="Page-1" stroke="none" stroke-width="1" fill="none" fill-rule="evenodd" sketch:type="MSPage" transform="scale(0.1, 0.1)">
        <rect id="Rectangle-1" fill="#3A99D8" sketch:type="MSShapeGroup" x="0" y="0" width="423" height="423"></rect>
        <g id="Group" sketch:type="MSLayerGroup" transform="translate(211.500000, 174.800000) scale(1, -1) translate(-211.500000, -174.800000) translate(15.000000, 16.300000)" fill="#FFFFFF">
            <path d="M189.614169,316.081802 C172.201959,315.209009 157.844523,309.884975 152.913245,302.466239 C151.778615,300.720654 151.385858,299.586024 151.12402,297.185844 L150.774903,294.131071 L148.81112,293.170999 C147.72013,292.647323 146.410941,292.210927 145.887265,292.210927 C145.36359,292.167288 144.839914,291.992729 144.665356,291.730891 C144.534437,291.512693 143.792563,291.119937 143.00705,290.901738 C142.221537,290.68354 140.519592,290.072586 139.210403,289.54891 C137.901214,289.025235 136.330188,288.457919 135.719233,288.239721 C135.108278,288.021523 133.537252,287.454208 132.228063,286.930533 C130.918874,286.406857 129.347848,285.839542 128.736893,285.621344 C128.125938,285.403146 126.554912,284.835831 125.245723,284.312155 C123.936534,283.78848 122.365508,283.221164 121.754553,283.002966 C121.143598,282.784768 119.572572,282.217453 118.263383,281.693778 C112.502953,279.468157 112.328394,279.424517 108.837224,279.948193 C99.9783802,281.170102 85.2281871,279.904553 75.0601545,277.024338 C62.2301049,273.402249 54.9859272,267.074503 54.9859272,259.524848 C54.9859272,258.084741 54.3749724,257.386507 52.4984685,256.819192 C51.8438742,256.600993 50.1855684,256.033678 48.8763797,255.510003 C47.5671909,254.986327 45.9961645,254.419012 45.3852097,254.200814 C44.774255,253.982616 43.2032285,253.415301 41.8940397,252.891625 C40.584851,252.36795 39.0138245,251.800635 38.4028698,251.582437 C37.791915,251.364238 36.2208885,250.796923 34.9116998,250.273248 C33.602511,249.749572 32.0314845,249.182257 31.4205298,248.964059 C30.8095751,248.745861 29.2385486,248.178546 27.9293598,247.65487 C26.6201711,247.131195 25.0491446,246.56388 24.4381898,246.345682 C23.8272351,246.127483 22.2562086,245.560168 20.9470199,245.036493 C19.6378311,244.512817 18.0668046,243.945502 17.4558499,243.727304 C16.8448951,243.509106 15.2738687,242.941791 13.9646799,242.418115 C12.6554912,241.89444 11.0844647,241.327125 10.4735099,241.108927 C9.86255519,240.890728 8.2915287,240.323413 6.98233996,239.799738 C5.67315121,239.276062 4.01484547,238.665108 3.31661148,238.446909 C2.61837748,238.272351 1.57102649,237.661396 1.00371137,237.094081 L-2.84217094e-14,236.177649 L-2.84217094e-14,155.749821 L-2.84217094e-14,75.3219923 L1.13463024,74.4491998 C1.78922461,73.9255243 2.53109823,73.5327677 2.88021523,73.5327677 C3.1856926,73.5327677 3.97120585,73.2709299 4.66943985,72.9218129 C5.32403422,72.5726959 6.67686258,72.0053808 7.63693433,71.6562638 C8.59700607,71.3071468 10.2116722,70.6961921 11.2590232,70.3034354 C12.2627345,69.9106788 13.9210403,69.2997241 14.9683913,68.9069674 C15.9721026,68.5142108 17.5431291,67.9468957 18.4595613,67.5977787 C22.2998482,66.1576711 23.8708747,65.5467163 25.0927842,65.0230408 C26.401973,64.4993653 28.4093957,63.7138521 31.856926,62.4046634 C32.8169978,62.0555464 34.3880243,61.4445916 35.348096,61.0954746 C36.3081678,60.7463576 37.9228339,60.1354029 38.9701849,59.7426462 C39.9738962,59.3498896 41.5885624,58.7389349 42.5486341,58.3898179 C43.5087058,58.0407009 44.9051738,57.4733858 45.6034078,57.1679084 C46.9125966,56.6442329 48.9200193,55.8587196 52.3675497,54.5495309 C53.3276214,54.2004139 54.9422875,53.5894592 55.9896385,53.1967025 C56.9933499,52.8039459 58.5643764,52.2366308 59.4808085,51.8875138 C60.353601,51.5383968 61.9246275,50.9710817 62.9719785,50.5783251 C63.9756898,50.2292081 65.3721578,49.6182533 66.0267522,49.2691363 C66.7249862,48.9200193 67.5541391,48.6581816 67.8596164,48.6581816 C68.1650938,48.6581816 68.9942467,48.3963438 69.6924807,48.0472268 C70.3470751,47.6981098 71.6999034,47.1307947 72.6599752,46.7816777 C73.6200469,46.4325607 75.2783526,45.7779663 76.3693433,45.3852097 C77.4603339,44.9924531 79.075,44.3814983 79.9914321,44.0323813 C80.8642246,43.6832643 82.4352511,43.1159492 83.4826021,42.7231926 C84.4863135,42.3740756 85.8827815,41.7631209 86.5373758,41.4140039 C87.2356098,41.0648869 88.0647627,40.8030491 88.3702401,40.8030491 C88.6757174,40.8030491 89.5048703,40.5412114 90.2031043,40.1920944 C90.8576987,39.8429774 92.2541667,39.2320226 93.3015177,38.8829056 C94.305229,38.490149 95.9198951,37.8791943 96.8799669,37.5300773 C97.8400386,37.1809603 99.4110651,36.5700055 100.371137,36.2208885 C101.331209,35.8717715 102.945875,35.2608168 103.993226,34.8680602 C104.996937,34.5189432 106.393405,33.9079884 107.047999,33.5588714 C107.746233,33.2097544 108.575386,32.9479167 108.880864,32.9479167 C109.186341,32.9479167 110.015494,32.6860789 110.713728,32.3369619 C111.368322,31.9878449 112.76479,31.3768902 113.812141,31.0277732 C114.815853,30.6350166 116.430519,30.0240618 117.390591,29.6749448 C118.350662,29.3258278 119.878049,28.7585127 120.794481,28.4093957 C125.114804,26.7947296 126.423993,26.2710541 127.558623,25.703739 C128.256857,25.354622 129.08601,25.0927842 129.391487,25.0927842 C129.696965,25.0927842 130.526118,24.8309465 131.224352,24.4818295 C131.878946,24.1327125 133.275414,23.5217577 134.322765,23.1726407 C136.853863,22.212569 139.297682,21.2961369 141.523303,20.466984 C142.527014,20.0742274 144.14168,19.4632726 145.101752,19.1141556 C146.061824,18.7650386 147.414652,18.1977235 148.069247,17.8486065 C148.767481,17.4994895 149.596634,17.2376518 149.902111,17.2376518 C150.207588,17.2376518 151.036741,16.975814 151.734975,16.626697 C152.38957,16.27758 153.742398,15.7102649 154.70247,15.3611479 C155.662541,15.0120309 157.233568,14.4447158 158.19364,14.0519592 C159.153711,13.7028422 160.724738,13.135527 161.68481,12.7427704 C167.270682,10.6480684 170.718212,9.33887969 172.15832,8.72792494 C172.900193,8.42244757 174.296661,7.85513245 175.344012,7.46237583 C176.347724,7.06961921 177.96239,6.45866446 178.922461,6.10954746 C179.882533,5.76043046 181.40992,5.19311534 182.326352,4.84399834 C183.199145,4.49488135 184.770171,3.92756623 185.817522,3.5348096 C186.821233,3.14205298 188.479539,2.53109823 189.52689,2.13834161 C190.530602,1.74558499 192.014349,1.13463024 192.843502,0.74187362 C194.807285,-0.218198124 198.734851,-0.218198124 201.091391,0.785513245 C202.836976,1.48374724 204.364363,2.05106236 208.073731,3.44753035 C212.394054,5.06219647 213.703242,5.58587196 214.837873,6.15318709 C215.536107,6.50230408 216.408899,6.76414183 216.845295,6.76414183 C217.238052,6.76414183 217.979925,7.06961921 218.459961,7.4187362 C218.896358,7.7678532 219.681871,8.07333057 220.161907,8.07333057 C220.641943,8.07333057 221.427456,8.37880795 221.863852,8.72792494 C222.343888,9.07704194 223.129401,9.38251932 223.609437,9.38251932 C224.133113,9.38251932 224.918626,9.68799669 225.355022,10.0371137 C225.835058,10.3862307 226.576932,10.6917081 226.969688,10.6917081 C227.406084,10.6917081 228.278877,10.9535458 228.977111,11.3026628 C229.631705,11.6517798 231.028173,12.2627345 232.075524,12.6118515 C233.079236,13.0046082 234.693902,13.6155629 235.653974,13.9646799 C236.614045,14.3137969 238.185072,14.9247517 239.145143,15.2738687 C240.105215,15.6229857 241.719881,16.2339404 242.767232,16.626697 C243.770944,17.0194536 245.34197,17.5867688 246.258402,17.9358858 C247.131195,18.2850028 248.614942,18.8086783 249.531374,19.1577953 C250.404167,19.5069123 251.975193,20.0742274 253.022544,20.466984 C255.379084,21.3397765 257.910182,22.2998482 260.004884,23.0853615 C260.877677,23.4344785 262.448703,24.0017936 263.496054,24.3945502 C264.499765,24.7873068 266.114432,25.3982616 267.074503,25.7473786 C268.034575,26.0964956 269.605602,26.7074503 270.565673,27.0565673 C271.525745,27.4056843 273.096772,28.0166391 274.056843,28.3657561 C275.016915,28.7148731 276.587942,29.3258278 277.548013,29.6749448 C278.508085,30.0240618 280.035472,30.5913769 280.951904,30.9404939 C281.824696,31.2896109 283.395723,31.856926 284.443074,32.2496827 C286.799614,33.1224752 289.330712,34.0825469 291.425414,34.8680602 C292.298206,35.2171772 293.912873,35.8281319 295.003863,36.2208885 C296.094854,36.6136451 297.70952,37.2245999 298.625952,37.5737169 C299.498744,37.9228339 301.069771,38.490149 302.117122,38.8829056 C303.120833,39.2320226 304.517301,39.8429774 305.171896,40.1920944 C305.87013,40.5412114 306.742922,40.8030491 307.179318,40.8030491 C307.572075,40.8030491 308.313949,41.1085265 308.793985,41.4576435 C309.230381,41.8067605 310.015894,42.1122379 310.53957,42.1122379 C311.019605,42.1122379 311.805119,42.4177152 312.285155,42.7668322 C312.721551,43.1159492 313.507064,43.4214266 313.9871,43.4214266 C314.467136,43.4214266 315.252649,43.726904 315.689045,44.076021 C316.169081,44.425138 316.910955,44.7306153 317.303711,44.7306153 C317.740108,44.7306153 318.6129,44.9924531 319.311134,45.3415701 C321.580395,46.4762003 323.849655,47.3489928 324.46061,47.3489928 C324.766087,47.3489928 325.59524,47.6108306 326.293474,47.9599476 C327.428104,48.5272627 328.737293,49.0509382 333.101256,50.6656043 C333.974048,51.0147213 335.501435,51.5820364 336.461507,51.9311534 C337.421578,52.2802704 338.992605,52.8912252 339.952677,53.2403422 C340.912748,53.5894592 342.440135,54.1567743 343.356567,54.5058913 C344.22936,54.8550083 345.800386,55.4223234 346.847737,55.81508 C347.851449,56.2078366 349.422475,56.7751518 350.338907,57.1242688 C351.2117,57.4733858 352.782726,58.0407009 353.830077,58.4334575 C354.833789,58.8262141 356.448455,59.4371689 357.408526,59.7862859 C358.368598,60.1354029 359.939625,60.7463576 360.899696,61.0954746 C361.859768,61.4445916 363.387155,62.0119067 364.303587,62.3610237 C365.17638,62.7101407 366.791046,63.3210955 367.882036,63.7138521 C368.973027,64.1066087 370.587693,64.7175635 371.504125,65.0666805 C373.555188,65.8521937 376.086286,66.8122655 378.486465,67.6850579 C379.490177,68.0778146 381.061203,68.6451297 381.977635,68.9942467 C386.341598,70.6089128 387.432588,71.0889487 389.221813,71.9181015 C390.269164,72.441777 391.534713,73.0527318 391.971109,73.3145695 C392.712983,73.7073262 392.756623,76.5875414 392.756623,154.047875 C392.756623,232.904677 392.756623,234.344785 391.92747,234.781181 C389.047254,236.264928 387.083471,237.18136 385.556084,237.748675 C384.596013,238.097792 382.981347,238.708747 381.977635,239.101504 C380.930284,239.49426 379.359258,240.061576 378.486465,240.410693 C376.74088,241.021647 374.384341,241.938079 371.285927,243.116349 C370.238576,243.509106 368.842108,244.076421 368.100235,244.381898 C367.402001,244.687376 365.961893,245.254691 364.958182,245.647448 C363.910831,246.040204 362.252525,246.651159 361.248813,247.043916 C360.201462,247.436672 358.674076,248.003987 357.844923,248.309465 C354.091915,249.662293 352.30269,250.404167 351.16806,250.971482 C350.469826,251.320599 349.640673,251.582437 349.247917,251.582437 C348.8988,251.582437 348.069647,251.844274 347.458692,252.193391 C346.804098,252.542508 345.494909,253.109823 344.534837,253.45894 C343.574765,253.808057 341.698262,254.549931 340.345433,255.073607 L337.901614,256.077318 L337.596137,259.568488 C337.334299,262.535982 337.072461,263.365135 335.763273,265.328918 C333.057616,269.431043 326.162555,273.707726 319.005657,275.715149 C317.696468,276.107906 315.514487,276.71886 314.161658,277.067977 C312.80883,277.460734 311.237804,277.766211 310.670488,277.766211 C310.103173,277.766211 308.13939,278.071689 306.350166,278.464445 C303.731788,278.988121 300.502456,279.11904 290.203504,279.03176 C279.380877,278.944481 277.067977,279.03176 275.802428,279.599076 C274.973275,279.991832 273.402249,280.646427 272.311258,281.039183 C271.220268,281.43194 269.78016,282.042895 269.125566,282.392012 C268.427332,282.741129 267.598179,283.002966 267.292701,283.002966 C266.987224,283.002966 266.158071,283.264804 265.459837,283.613921 C264.805243,283.963038 263.365135,284.573993 262.274145,284.966749 C258.12838,286.537776 256.775552,287.061451 255.291805,287.585127 C251.538797,288.937955 249.749572,289.679829 248.614942,290.247144 C247.916708,290.596261 247.087555,290.858099 246.782078,290.858099 C246.4766,290.858099 245.647448,291.119937 244.949214,291.469054 C244.294619,291.774531 243.159989,292.341846 242.418115,292.647323 C241.196206,293.258278 241.108927,293.476476 240.803449,296.705808 C240.541611,299.629663 240.236134,300.502456 238.970585,302.422599 C234.388424,309.31766 221.820212,314.467136 206.415425,315.732685 C198.603932,316.34364 196.160113,316.430919 189.614169,316.081802 L189.614169,316.081802 Z M205.106236,308.313949 C219.158195,306.873841 230.329939,302.640797 232.861038,297.796799 C233.384713,296.705808 233.384713,296.356692 232.861038,295.091142 C232.337362,293.781954 229.849903,291.425414 228.235237,290.72718 C227.88612,290.552621 227.275166,290.247144 226.926049,290.072586 C223.434879,288.065163 217.49989,286.275938 210.124793,285.010389 C204.6262,284.050317 187.344909,284.050317 181.802677,285.010389 C176.042246,286.0141 168.972627,287.934244 166.790646,289.068874 C166.397889,289.287072 165.743295,289.59255 165.394178,289.723469 C163.124917,290.596261 159.677387,293.476476 159.022792,295.091142 C158.499117,296.356692 158.499117,296.705808 159.022792,297.796799 C162.81944,305.128256 185.381126,310.277732 205.106236,308.313949 L205.106236,308.313949 Z M150.993102,276.893419 C151.254939,268.863728 151.298579,268.296413 152.30229,266.638107 C153.829677,264.150648 154.833389,263.059658 157.233568,261.314073 C159.459189,259.655767 164.826863,256.819192 165.699655,256.819192 C166.005132,256.819192 166.877925,256.557354 167.663438,256.208237 C173.511148,253.720778 185.773882,251.800635 195.941915,251.800635 C206.109948,251.800635 218.372682,253.720778 224.220392,256.208237 C225.005905,256.557354 225.878698,256.819192 226.184175,256.819192 C227.100607,256.819192 232.293722,259.568488 234.562983,261.270433 C237.050442,263.059658 238.054153,264.150648 239.58154,266.638107 C240.628891,268.296413 240.67253,268.820088 240.890728,276.238825 C241.108927,283.439363 241.152566,284.093957 241.938079,284.224876 C242.374476,284.312155 243.334547,284.093957 244.120061,283.74484 C245.38561,283.133885 246.52024,282.697489 250.840563,281.082823 C251.713355,280.733706 253.328022,280.122751 254.419012,279.729994 C255.510003,279.337238 257.124669,278.726283 258.041101,278.377166 C258.913893,278.028049 260.397641,277.504374 261.314073,277.155257 C262.186865,276.80614 263.321496,276.413383 263.801531,276.238825 C264.630684,275.976987 264.630684,275.933347 263.626973,275.104194 C263.059658,274.624158 262.099586,274.144123 261.532271,274.013204 C260.921316,273.838645 259.612127,273.27133 258.652056,272.704015 C257.648344,272.1367 256.426435,271.482105 255.946399,271.263907 C254.506291,270.609313 250.491446,266.812666 249.225897,264.936162 L248.091267,263.146937 L248.091267,246.956636 C248.091267,232.119164 248.134906,230.635417 248.87678,229.893543 C249.269536,229.413507 249.618653,228.846192 249.618653,228.627994 C249.618653,227.667922 254.986327,223.30396 257.953822,221.863852 C262.405063,219.681871 266.681747,218.067205 269.474683,217.543529 C270.434754,217.368971 272.09306,217.019854 273.184051,216.758016 C278.246247,215.492467 284.268515,214.925152 292.603684,214.925152 C302.902635,214.925152 310.190453,215.841584 318.56926,218.285403 C320.794881,218.896358 321.798593,219.289114 325.333402,220.816501 C326.075276,221.121978 326.948068,221.514735 327.297185,221.645654 C329.04277,222.343888 332.795778,225.180464 334.454084,227.056967 C337.290659,230.2863 337.508858,231.028173 337.639776,239.319702 C337.727056,243.465466 337.901614,247.043916 337.988893,247.262114 C338.119812,247.436672 339.55992,247.087555 341.174586,246.52024 C342.789252,245.909285 344.709396,245.211051 345.494909,244.992853 C346.280422,244.774655 347.022296,244.381898 347.153215,244.1637 C347.327773,243.901863 347.807809,243.727304 348.244205,243.727304 C348.680602,243.727304 349.597034,243.465466 350.295268,243.116349 C350.949862,242.767232 352.34633,242.156278 353.393681,241.807161 C354.397392,241.414404 355.968419,240.847089 356.884851,240.497972 C358.499517,239.887017 360.376021,239.188783 363.95447,237.835955 C365.045461,237.443198 366.485568,236.832243 367.140163,236.483126 C367.838397,236.134009 368.66755,235.872172 368.973027,235.872172 C369.278504,235.872172 370.107657,235.610334 370.805891,235.261217 C373.118791,234.126587 375.344412,233.253794 375.955367,233.253794 C377.351835,233.253794 376.479042,232.119164 374.515259,231.37729 C371.198648,230.068102 369.103946,229.282588 367.358361,228.627994 C366.441929,228.278877 364.870902,227.711562 363.867191,227.318805 C362.81984,226.926049 361.248813,226.358733 360.376021,226.009616 C359.459589,225.660499 357.932202,225.093184 356.97213,224.744067 C356.012058,224.39495 354.397392,223.783996 353.393681,223.391239 C352.34633,222.998482 350.775304,222.431167 349.902511,222.08205 C348.986079,221.732933 347.415052,221.165618 346.411341,220.772861 C345.36399,220.423744 343.967522,219.81279 343.312928,219.463673 C342.614694,219.114556 341.741901,218.852718 341.305505,218.852718 C340.912748,218.852718 340.170875,218.547241 339.690839,218.198124 C339.254443,217.849007 338.468929,217.543529 337.988893,217.543529 C337.508858,217.543529 336.723344,217.238052 336.286948,216.888935 C335.806912,216.539818 335.021399,216.234341 334.541363,216.234341 C334.017688,216.234341 333.232174,215.928863 332.795778,215.579746 C332.315742,215.230629 331.530229,214.925152 331.050193,214.925152 C330.526518,214.925152 329.741004,214.619674 329.304608,214.270557 C328.824572,213.92144 328.039059,213.615963 327.559023,213.615963 C327.035348,213.615963 326.249834,213.310486 325.813438,212.961369 C325.333402,212.612252 324.591529,212.306774 324.198772,212.306774 C323.762376,212.306774 322.889583,212.044937 322.191349,211.69582 C321.536755,211.346703 320.140287,210.735748 319.136576,210.386631 C318.089225,209.993874 316.474558,209.382919 315.514487,209.033802 C314.554415,208.684685 312.983389,208.073731 312.023317,207.724614 C311.063245,207.375497 309.492219,206.764542 308.532147,206.415425 C307.572075,206.066308 306.001049,205.455353 305.040977,205.106236 C304.080905,204.757119 302.509879,204.146164 301.549807,203.797047 C300.589735,203.44793 299.018709,202.836976 298.058637,202.487859 C297.098565,202.138742 295.527539,201.527787 294.567467,201.17867 C293.607395,200.829553 291.992729,200.218598 290.989018,199.825842 C289.941667,199.433085 288.37064,198.86577 287.497848,198.516653 C286.581416,198.167536 285.054029,197.600221 284.093957,197.251104 C283.133885,196.901987 281.562859,196.291032 280.602787,195.941915 C279.642715,195.592798 278.071689,194.981843 277.111617,194.632726 C276.151545,194.283609 274.580519,193.672655 273.620447,193.323538 C272.660375,192.974421 271.089349,192.363466 270.129277,192.014349 C269.169205,191.665232 267.641818,191.097917 266.769026,190.7488 C265.852594,190.399683 264.281567,189.832368 263.277856,189.439611 C261.052235,188.610458 258.608416,187.694026 256.077318,186.733954 C255.029967,186.384837 253.633499,185.773882 252.978905,185.424765 C252.280671,185.075648 251.407878,184.813811 250.971482,184.813811 C250.578725,184.813811 249.836852,184.508333 249.356816,184.159216 C248.920419,183.810099 248.134906,183.504622 247.65487,183.504622 C247.174834,183.504622 246.389321,183.199145 245.952925,182.850028 C245.472889,182.500911 244.687376,182.195433 244.20734,182.195433 C243.683664,182.195433 242.898151,181.889956 242.461755,181.540839 C241.981719,181.191722 241.239845,180.886244 240.847089,180.886244 C240.410693,180.886244 239.5379,180.624407 238.839666,180.27529 C236.352208,179.05338 234.301145,178.267867 233.471992,178.267867 C233.035596,178.267867 232.55556,178.093308 232.381002,177.831471 C232.250083,177.613273 231.508209,177.220516 230.722696,177.002318 C229.937183,176.78412 228.235237,176.173165 226.926049,175.64949 C225.61686,175.125814 224.045833,174.558499 223.434879,174.340301 C222.823924,174.122103 221.252897,173.554788 219.943709,173.031112 C218.63452,172.507437 217.063493,171.940121 216.452539,171.721923 C215.841584,171.503725 214.270557,170.93641 212.961369,170.412735 C211.65218,169.889059 210.081153,169.321744 209.470199,169.103546 C208.859244,168.885348 207.288217,168.318033 205.979029,167.794357 C203.44793,166.790646 202.793336,166.572448 199.040328,165.263259 C196.901987,164.521385 196.465591,164.521385 194.894564,165.045061 C193.890853,165.394178 192.930781,165.874214 192.668943,166.092412 C192.450745,166.31061 191.92707,166.485168 191.534313,166.485168 C191.097917,166.485168 190.225124,166.747006 189.52689,167.096123 C188.872296,167.44524 187.475828,168.056195 186.472116,168.405312 C183.897379,169.365384 181.45356,170.281816 179.271578,171.110969 C178.224227,171.503725 176.609561,172.11468 175.64949,172.463797 C174.689418,172.812914 173.336589,173.380229 172.681995,173.729346 C171.983761,174.078463 171.154608,174.340301 170.849131,174.340301 C170.543653,174.340301 169.714501,174.602139 169.016267,174.951256 C168.361672,175.300373 167.008844,175.867688 166.048772,176.216805 C163.735872,177.045958 161.248413,178.006029 158.848234,178.922461 C157.757243,179.315218 156.098938,179.969812 155.138866,180.318929 C154.178794,180.668046 152.825966,181.235361 152.171371,181.584478 C151.473137,181.933595 150.643985,182.195433 150.338507,182.195433 C150.03303,182.195433 149.203877,182.457271 148.505643,182.806388 C147.371013,183.373703 146.061824,183.897379 141.741501,185.512045 C140.825069,185.861162 139.297682,186.428477 138.33761,186.777594 C137.377539,187.126711 135.850152,187.694026 134.977359,188.043143 C131.093433,189.483251 129.304208,190.181485 128.213217,190.7488 C127.602263,191.097917 126.77311,191.359754 126.423993,191.359754 C126.031236,191.359754 125.202083,191.621592 124.503849,191.970709 C123.849255,192.319826 122.496427,192.887141 121.536355,193.236258 C120.576283,193.585375 118.961617,194.19633 117.957906,194.589087 C116.168681,195.243681 114.946772,195.723717 110.757368,197.294743 C109.710017,197.6875 108.313549,198.254815 107.571675,198.560292 C106.873441,198.86577 105.476973,199.389445 104.516901,199.782202 C103.556829,200.131319 101.898524,200.785913 100.807533,201.17867 C99.7165425,201.571427 98.1018764,202.182381 97.2290839,202.531498 C96.3126518,202.880615 94.7852649,203.44793 93.8251932,203.797047 C92.8651214,204.146164 91.2504553,204.757119 90.2467439,205.149876 C89.1993929,205.542632 87.8029249,206.109948 87.0610513,206.415425 C85.7518626,206.9391 83.7444398,207.724614 80.2969095,209.033802 C79.3368377,209.382919 77.7658113,209.993874 76.8057395,210.342991 C75.8456678,210.692108 74.2746413,211.303063 73.3145695,211.65218 C72.3544978,212.001297 70.7398317,212.612252 69.7361203,213.005008 C68.6887693,213.354125 67.2923013,213.96508 66.637707,214.314197 C65.939473,214.663314 65.1103201,214.925152 64.8048427,214.925152 C64.4993653,214.925152 63.6702125,215.18699 62.9719785,215.536107 C61.8373482,216.103422 60.5281595,216.627097 56.2078366,218.241763 C55.2914045,218.59088 53.7640177,219.158195 52.8039459,219.507312 C51.8438742,219.856429 50.2292081,220.467384 49.2254967,220.860141 C48.1781457,221.209258 46.7816777,221.820212 46.1270833,222.169329 C45.4288493,222.518446 44.5996965,222.780284 44.2069398,222.780284 C43.8578228,222.780284 43.02867,223.042122 42.4177152,223.391239 C41.3267246,223.958554 40.4539321,224.307671 35.7844923,226.053256 C34.8244205,226.402373 33.253394,227.013328 32.2933223,227.362445 C31.3332506,227.711562 29.7622241,228.322517 28.8021523,228.671634 C25.354622,229.980822 23.3471992,230.766336 22.0380105,231.290011 C19.4632726,232.424641 17.2376518,233.210155 16.4084989,233.341073 C14.2265177,233.69019 15.4920668,234.824821 19.9869481,236.483126 C20.9906595,236.875883 22.6489652,237.486838 23.6963162,237.879594 C24.7000276,238.272351 26.2274145,238.839666 27.0565673,239.145143 C27.8857202,239.450621 29.4131071,240.017936 30.4604581,240.410693 C31.4641694,240.803449 33.0788355,241.414404 34.0389073,241.763521 C34.998979,242.112638 36.6136451,242.723593 37.6609961,243.116349 C38.6647075,243.509106 40.1920944,244.076421 41.0212472,244.381898 C42.5049945,244.905574 43.8578228,245.429249 48.0035872,247.000276 C49.0945778,247.393033 50.5346854,248.003987 51.1892798,248.353104 C51.8875138,248.702221 53.022144,248.964059 53.720378,248.964059 L54.9859272,248.964059 L54.9859272,241.89444 C54.9859272,232.337362 55.6841611,230.24266 60.0481236,226.358733 C62.448303,224.220392 68.5578504,220.816501 71.2635072,220.161907 C72.0490204,219.943709 73.2709299,219.594592 73.9691639,219.332754 C75.932947,218.678159 80.0350717,217.718088 84.660872,216.845295 C90.6395006,215.667025 109.666377,215.667025 115.645006,216.845295 C120.270806,217.718088 124.37293,218.678159 126.336714,219.332754 C127.078587,219.594592 128.256857,219.943709 128.955091,220.118267 C129.696965,220.292826 130.657036,220.685582 131.137072,220.90378 C131.617108,221.165618 133.362693,222.038411 135.020999,222.867563 C138.512169,224.525869 142.527014,228.191598 143.967122,230.940894 C144.839914,232.730119 144.883554,233.297434 144.883554,248.047627 C144.883554,262.79782 144.839914,263.408775 143.967122,265.11072 C142.177897,268.514611 138.075773,271.918502 133.100855,274.144123 C132.009865,274.624158 130.395199,275.322392 129.478767,275.758789 C127.558623,276.587942 127.558623,277.373455 129.435127,277.809851 C130.133361,277.984409 131.791667,278.551725 133.100855,279.0754 C134.410044,279.599076 135.893791,280.122751 136.373827,280.25367 C136.853863,280.428228 137.639376,280.777345 138.119412,281.126462 C138.599448,281.43194 139.384961,281.693778 139.864997,281.693778 C140.345033,281.693778 141.130546,281.999255 141.566943,282.348372 C142.046978,282.697489 142.832492,283.002966 143.312528,283.002966 C143.836203,283.002966 144.621716,283.308444 145.058113,283.657561 C145.538148,284.006678 146.323662,284.312155 146.803698,284.312155 C147.327373,284.312155 148.112886,284.617632 148.592922,285.010389 C150.600345,286.537776 150.774903,286.0141 150.993102,276.893419 L150.993102,276.893419 Z M233.384713,278.420806 C233.559272,271.525745 233.166515,270.041998 230.722696,267.947296 C225.529581,263.452414 211.60854,259.655767 200.305877,259.655767 L196.160113,259.655767 L196.160113,267.947296 L196.160113,276.238825 L201.396868,276.500662 C209.208361,276.893419 216.932575,278.246247 222.780284,280.25367 C224.48223,280.864625 226.446013,281.519219 227.231526,281.737417 C228.017039,281.955615 228.758913,282.348372 228.889832,282.56657 C229.06439,282.828408 229.500786,283.002966 229.937183,283.002966 C230.373579,283.002966 230.984534,283.308444 231.290011,283.657561 C231.595488,284.050317 232.162804,284.268515 232.55556,284.224876 C233.122875,284.093957 233.253794,283.177525 233.384713,278.420806 L233.384713,278.420806 Z M112.022917,271.874862 C113.899421,271.525745 115.950483,271.220268 116.561438,271.220268 C117.652428,271.220268 118.830698,270.91479 124.809327,269.169205 C128.693253,267.990935 133.188135,265.721675 135.239197,263.93245 C136.897503,262.492343 137.159341,262.012307 137.20298,260.44128 C137.20298,258.957533 136.984782,258.346578 135.937431,257.211948 C130.875235,251.887914 115.688645,247.873068 100.371137,247.873068 C92.2978063,247.873068 82.3043322,249.138618 77.4603339,250.796923 C76.7620999,251.015121 75.58383,251.407878 74.8419564,251.582437 C68.3396523,253.415301 62.8410596,257.473786 62.8410596,260.44128 C62.8410596,264.325207 73.3582092,269.692881 84.2244757,271.263907 C85.7955022,271.525745 87.9338438,271.874862 89.0248344,272.049421 C92.6032837,272.704015 108.269909,272.573096 112.022917,271.874862 L112.022917,271.874862 Z M307.877552,270.522034 C317.652828,268.64553 323.500538,266.419909 327.602663,263.103297 C333.013976,258.695695 328.082699,253.415301 315.078091,249.705933 C302.902635,246.214763 281.955615,246.171123 270.95843,249.618653 C269.8238,249.96777 268.689169,250.273248 268.383692,250.273248 C268.078215,250.273248 267.249062,250.535086 266.507188,250.884203 C265.721675,251.18968 264.237928,251.844274 263.146937,252.280671 C260.223082,253.45894 256.644633,256.251876 255.85912,257.953822 C255.204525,259.26301 255.204525,259.568488 255.771841,260.615839 C256.426435,261.925028 259.175731,264.674324 259.830326,264.674324 C260.048524,264.674324 260.572199,264.936162 260.921316,265.241639 C262.055946,266.158071 267.336341,268.209134 271.220268,269.169205 C275.758789,270.303836 279.380877,270.91479 283.657561,271.263907 C289.898027,271.743943 303.819067,271.307547 307.877552,270.522034 L307.877552,270.522034 Z M137.24662,240.978008 L137.24662,234.170226 L135.588314,232.468281 C132.57718,229.369868 125.463921,226.489652 116.735996,224.787707 C112.022917,223.871275 101.243929,223.042122 100.763893,223.522158 C100.545695,223.740356 100.414776,227.537003 100.458416,231.988245 L100.589335,240.017936 L101.898524,240.105215 C114.772213,241.065287 123.194661,242.461755 127.776821,244.425538 C128.562334,244.774655 129.435127,245.036493 129.740604,245.036493 C130.046082,245.036493 131.660748,245.734727 133.319054,246.56388 C135.020999,247.393033 136.592025,248.003987 136.810224,247.916708 C137.072061,247.873068 137.24662,245.123772 137.24662,240.978008 L137.24662,240.978008 Z M329.828284,240.017936 L329.697365,232.817398 L327.95178,231.246371 C326.991708,230.373579 325.813438,229.500786 325.333402,229.282588 C324.853366,229.06439 324.155132,228.715273 323.806015,228.497075 C323.195061,228.147958 322.540466,227.842481 318.438342,226.096896 C317.521909,225.704139 316.474558,225.398662 316.081802,225.398662 C315.689045,225.398662 314.379857,225.136824 313.157947,224.787707 C307.702994,223.26032 298.975069,222.343888 293.345557,222.736645 C292.909161,222.780284 292.821882,224.569509 292.909161,230.984534 L293.04008,239.145143 L298.276835,239.49426 C303.731788,239.843377 310.975966,240.847089 313.9871,241.632602 C314.947172,241.89444 316.430919,242.243557 317.260072,242.461755 C319.79117,242.98543 322.933223,244.20734 326.642591,246.040204 C327.864501,246.651159 329.08641,247.174834 329.391887,247.174834 C329.871923,247.218474 329.959203,245.778366 329.828284,240.017936 L329.828284,240.017936 Z M384.377815,152.476849 C384.246896,86.9737721 384.159616,78.1585679 383.592301,77.8967301 C382.981347,77.5912528 382.108554,77.2421358 377.482754,75.4965508 C376.522682,75.1474338 374.951656,74.536479 373.991584,74.187362 C373.031512,73.838245 371.460486,73.2272903 370.500414,72.8781733 C369.540342,72.5290563 367.969316,71.9181015 367.009244,71.5689845 C366.049172,71.2198675 364.478146,70.6089128 363.518074,70.2597958 C362.558002,69.9106788 360.943336,69.2997241 359.939625,68.9069674 C358.892274,68.5142108 357.321247,67.9468957 356.448455,67.5977787 C355.532023,67.2486617 354.048275,66.7249862 353.175483,66.3758692 C352.259051,66.0267522 350.688024,65.4594371 349.684313,65.0666805 C348.636962,64.6739238 347.022296,64.0629691 346.062224,63.7138521 C345.102152,63.3647351 343.531126,62.7537804 342.571054,62.4046634 C341.610982,62.0555464 340.039956,61.4445916 339.079884,61.0954746 C338.119812,60.7463576 336.548786,60.1354029 335.588714,59.7862859 C334.628642,59.4371689 333.013976,58.8262141 332.010265,58.4334575 C330.962914,58.0843405 329.566446,57.4733858 328.911852,57.1242688 C328.213618,56.7751518 327.340825,56.513314 326.904429,56.513314 C326.511672,56.513314 325.769799,56.2078366 325.289763,55.8587196 C324.853366,55.5096026 324.067853,55.2041253 323.587817,55.2041253 C323.107781,55.2041253 322.322268,54.8986479 321.885872,54.5495309 C321.405836,54.2004139 320.663962,53.8949365 320.271206,53.8949365 C319.83481,53.8949365 318.962017,53.6330988 318.263783,53.2839818 C317.609189,52.9348648 316.25636,52.3675497 315.296289,52.0184327 C314.336217,51.6693157 312.721551,51.0583609 311.717839,50.6656043 C309.31766,49.7928118 306.786562,48.8327401 304.735499,48.0472268 C303.819067,47.6981098 302.248041,47.1307947 301.244329,46.7380381 C300.196978,46.3452815 298.582312,45.7343267 297.622241,45.3852097 C296.662169,45.0360927 295.091142,44.425138 294.131071,44.076021 C293.170999,43.726904 291.599972,43.1159492 290.639901,42.7668322 C289.679829,42.4177152 288.108802,41.8067605 287.148731,41.4576435 C286.188659,41.1085265 284.617632,40.4975717 283.657561,40.1484547 C282.697489,39.7993377 281.082823,39.188383 280.079111,38.7956264 C279.03176,38.4028698 277.504374,37.8355546 276.675221,37.5300773 C275.846068,37.2245999 274.275041,36.6136451 273.184051,36.2208885 C270.696592,35.2608168 268.165494,34.300745 266.201711,33.602511 C265.372558,33.2970337 263.801531,32.6860789 262.710541,32.2933223 C261.61955,31.9005657 260.004884,31.2896109 259.132092,30.9404939 C258.215659,30.5913769 256.688273,30.0240618 255.728201,29.6749448 C254.768129,29.3258278 253.197103,28.7148731 252.237031,28.3657561 C251.276959,28.0166391 249.749572,27.449324 248.87678,27.100207 C244.512817,25.4855408 243.203629,24.9618653 242.068998,24.3945502 C241.370764,24.0454332 240.497972,23.7835955 240.061576,23.7835955 C239.668819,23.7835955 238.926945,23.4781181 238.446909,23.1290011 C238.010513,22.7798841 237.225,22.4744067 236.701325,22.4744067 C236.221289,22.4744067 235.435775,22.1689294 234.95574,21.8198124 C234.519343,21.4706954 233.73383,21.165218 233.253794,21.165218 C232.773758,21.165218 231.988245,20.8597406 231.551849,20.5106236 C231.071813,20.1615066 230.2863,19.8560292 229.806264,19.8560292 C229.282588,19.8560292 228.497075,19.5505519 228.060679,19.2014349 C227.580643,18.8523179 226.838769,18.5468405 226.446013,18.5468405 C226.009616,18.5468405 225.136824,18.2850028 224.43859,17.9358858 C223.783996,17.5867688 222.387528,16.975814 221.383816,16.626697 C218.809078,15.6666253 216.365259,14.7501932 214.183278,13.9210403 C213.135927,13.5282837 211.521261,12.9173289 210.561189,12.5682119 C209.601118,12.1754553 208.030091,11.6081402 207.070019,11.2590232 C206.109948,10.8662666 204.582561,10.2989514 203.709768,9.94983444 C200.436796,8.59700607 200.742274,1.57102649 200.742274,83.1334851 C200.742274,131.791667 200.873193,156.797172 201.17867,157.320847 C201.440508,157.800883 202.269661,158.368198 203.055174,158.586396 C204.451642,159.022792 205.84811,159.502828 210.342991,161.248413 C211.65218,161.772089 213.223206,162.339404 213.834161,162.557602 C214.445116,162.7758 216.016142,163.343115 217.325331,163.866791 C218.63452,164.390466 220.205546,164.957781 220.816501,165.17598 C221.427456,165.394178 222.998482,165.961493 224.307671,166.485168 C225.61686,167.008844 227.318805,167.619799 228.104318,167.837997 C228.889832,168.056195 229.631705,168.448951 229.762624,168.66715 C229.937183,168.928987 230.460858,169.103546 231.028173,169.103546 C231.551849,169.103546 232.381002,169.409023 232.861038,169.75814 C233.297434,170.107257 234.082947,170.412735 234.562983,170.412735 C235.043019,170.412735 235.828532,170.718212 236.264928,171.067329 C236.744964,171.416446 237.530477,171.721923 238.010513,171.721923 C238.534189,171.721923 239.319702,172.027401 239.756098,172.376518 C240.236134,172.725635 240.978008,173.031112 241.370764,173.031112 C241.807161,173.031112 242.679953,173.29295 243.378187,173.642067 C245.647448,174.776697 247.916708,175.64949 248.527663,175.64949 C248.83314,175.64949 249.662293,175.911327 250.360527,176.260444 C251.015121,176.609561 252.455229,177.220516 253.54622,177.613273 C257.691984,179.184299 259.044812,179.707975 260.52856,180.23165 C261.357712,180.537127 262.928739,181.148082 264.01973,181.540839 C265.11072,181.933595 266.725386,182.54455 267.641818,182.893667 C268.514611,183.242784 269.998358,183.76646 270.91479,184.115577 C271.787583,184.464694 273.358609,185.032009 274.40596,185.424765 C275.409672,185.817522 277.067977,186.428477 278.115328,186.821233 C279.11904,187.21399 280.646427,187.781305 281.475579,188.086783 C282.304732,188.39226 283.832119,188.959575 284.87947,189.352332 C285.883182,189.745088 287.497848,190.356043 288.457919,190.70516 C289.417991,191.054277 291.032657,191.665232 292.080008,192.057988 C293.08372,192.450745 294.611107,193.01806 295.440259,193.323538 C297.404042,194.021772 299.935141,194.981843 302.422599,195.941915 C303.51359,196.334672 305.171896,196.989266 306.131967,197.338383 C307.092039,197.73114 308.575786,198.254815 309.404939,198.560292 C310.888687,199.083968 312.241515,199.607643 316.387279,201.17867 C317.47827,201.571427 318.918377,202.182381 319.572972,202.531498 C320.271206,202.880615 321.143998,203.142453 321.580395,203.142453 C321.973151,203.142453 322.715025,203.44793 323.195061,203.797047 C323.631457,204.146164 324.41697,204.451642 324.940646,204.451642 C325.420682,204.451642 326.206195,204.757119 326.686231,205.106236 C327.122627,205.455353 327.90814,205.760831 328.388176,205.760831 C328.868212,205.760831 329.653725,206.066308 330.090121,206.415425 C330.570157,206.764542 331.355671,207.070019 331.835706,207.070019 C332.359382,207.070019 333.144895,207.375497 333.581291,207.724614 C334.061327,208.073731 334.846841,208.379208 335.326876,208.379208 C335.850552,208.379208 336.636065,208.684685 337.072461,209.033802 C337.552497,209.382919 338.294371,209.688397 338.687127,209.688397 C339.123524,209.688397 339.996316,209.950235 340.69455,210.299352 C341.349145,210.648469 342.745613,211.259423 343.792964,211.60854 C344.796675,212.001297 346.454981,212.612252 347.502332,213.005008 C348.506043,213.397765 350.120709,214.00872 351.080781,214.357837 C352.040853,214.750593 353.611879,215.317908 354.571951,215.667025 C355.532023,216.059782 357.059409,216.583458 357.975842,216.932575 C358.848634,217.281692 360.332381,217.805367 361.248813,218.154484 C362.121606,218.503601 363.648993,219.027276 364.609065,219.420033 C365.569136,219.76915 367.140163,220.336465 368.100235,220.729222 C369.060306,221.078339 370.718612,221.732933 371.809603,222.12569 C373.817025,222.911203 375.868088,223.653077 379.010141,224.831347 C379.970212,225.180464 381.36668,225.747779 382.064914,226.053256 C382.806788,226.402373 383.635941,226.664211 383.941418,226.664211 C384.377815,226.70785 384.465094,211.739459 384.377815,152.476849 L384.377815,152.476849 Z" id="Shape" sketch:type="MSShapeGroup"></path>
            <path d="M187.21399,242.810872 C182.719109,242.330836 175.693129,241.196206 173.903905,240.585251 C173.205671,240.323413 171.896482,239.974296 171.067329,239.799738 C165.17598,238.446909 157.713604,234.170226 154.527911,230.329939 C151.953173,227.187886 151.822254,226.140535 151.953173,210.299352 C152.084092,196.334672 152.127732,195.898275 153.087804,193.890853 C154.091515,191.83979 157.408126,188.304981 159.32827,187.21399 C161.422972,186.03572 166.747006,183.504622 167.139763,183.504622 C167.357961,183.504622 168.187114,183.242784 168.972627,182.893667 C174.296661,180.624407 187.126711,178.704263 197.032906,178.704263 C206.9391,178.704263 219.245475,180.580767 224.656788,182.893667 C225.442301,183.242784 226.315094,183.504622 226.620571,183.504622 C228.060679,183.504622 235.392136,187.781305 237.574117,189.919647 C241.763521,193.978132 241.763521,193.934492 241.763521,211.084865 C241.763521,227.537003 241.807161,227.275166 238.621468,230.897254 C235.348496,234.606623 228.453435,238.40327 222.562086,239.799738 C221.732933,239.974296 220.467384,240.323413 219.72551,240.585251 C217.849007,241.196206 210.823027,242.330836 205.629912,242.854512 C200.480436,243.378187 192.581664,243.334547 187.21399,242.810872 L187.21399,242.810872 Z M207.942812,234.999379 C218.852718,233.515632 226.140535,231.246371 230.635417,227.798841 C233.210155,225.878698 233.864749,224.918626 233.864749,223.21668 C233.864749,220.249186 230.19902,217.49989 222.300248,214.488756 C220.685582,213.877801 214.139639,212.394054 209.862955,211.69582 C204.277083,210.735748 190.094205,210.735748 184.028297,211.69582 C179.620695,212.350414 175.518571,213.266846 173.031112,214.095999 C172.332878,214.357837 171.110969,214.706954 170.412735,214.881512 C169.670861,215.056071 168.710789,215.448827 168.230753,215.710665 C167.750717,215.972503 167.052483,216.27798 166.703366,216.408899 C164.608664,217.194412 160.724738,220.423744 159.895585,222.038411 C159.240991,223.30396 159.240991,223.478518 159.939225,224.787707 C162.426683,229.413507 173.729346,233.73383 186.777594,234.999379 C189.52689,235.304857 192.188907,235.566694 192.668943,235.653974 C194.15269,235.915811 204.277083,235.479415 207.942812,234.999379 L207.942812,234.999379 Z M233.952028,210.47391 C234.039307,210.168433 234.082947,207.02638 233.995668,203.44793 L233.864749,197.032906 L232.250083,195.3746 C230.635417,193.759934 225.005905,190.66152 222.387528,190.006926 C221.645654,189.832368 220.467384,189.483251 219.72551,189.221413 C216.539818,188.174062 208.510127,186.864873 201.353228,186.297558 C196.640149,185.904801 196.771068,185.686603 196.901987,195.3746 L197.032906,202.924255 L199.651283,203.011534 C208.728325,203.404291 219.987348,205.542632 227.144247,208.291929 C231.202732,209.862955 231.639128,210.081153 231.944605,210.51755 C232.337362,211.172144 233.77747,211.128504 233.952028,210.47391 L233.952028,210.47391 Z" id="Shape" sketch:type="MSShapeGroup"></path>
        </g>
        <text id="bifrost" sketch:type="MSTextLayer" font-family="Lucida Grande" font-size="80" font-weight="normal" fill="#FFFFFF">
            <tspan x="84" y="410">bifrost</tspan>
        </text>
    </g>
</svg>